<?xml version="1.0" encoding="UTF-8" standalone="no"?>
<svg
   xmlns:dc="http://purl.org/dc/elements/1.1/"
   xmlns:cc="http://creativecommons.org/ns#"
   xmlns:rdf="http://www.w3.org/1999/02/22-rdf-syntax-ns#"
   xmlns:svg="http://www.w3.org/2000/svg"
   xmlns="http://www.w3.org/2000/svg"
   xmlns:sodipodi="http://sodipodi.sourceforge.net/DTD/sodipodi-0.dtd"
   xmlns:inkscape="http://www.inkscape.org/namespaces/inkscape"
   version="1.0"
   width="430.000000pt"
   height="430.000000pt"
   viewBox="0 0 430.000000 430.000000"
   preserveAspectRatio="xMidYMid meet"
   id="svg2"
   inkscape:version="0.91 r13725"
   sodipodi:docname="icon_xuiz.svg">
  <defs
     id="defs18" />
  <sodipodi:namedview
     pagecolor="#ffffff"
     bordercolor="#666666"
     borderopacity="1"
     objecttolerance="10"
     gridtolerance="10"
     guidetolerance="10"
     inkscape:pageopacity="0"
     inkscape:pageshadow="2"
     inkscape:window-width="2560"
     inkscape:window-height="1287"
     id="namedview16"
     showgrid="false"
     inkscape:zoom="0.87813953"
     inkscape:cx="501.74517"
     inkscape:cy="115.88027"
     inkscape:window-x="0"
     inkscape:window-y="24"
     inkscape:window-maximized="1"
     inkscape:current-layer="svg2" />
  <metadata
     id="metadata4">
Created by potrace 1.13, written by Peter Selinger 2001-2015
<rdf:RDF>
  <cc:Work
     rdf:about="">
    <dc:format>image/svg+xml</dc:format>
    <dc:type
       rdf:resource="http://purl.org/dc/dcmitype/StillImage" />
    <dc:title></dc:title>
  </cc:Work>
</rdf:RDF>
</metadata>
  <g
     transform="translate(0.000000,430.000000) scale(0.100000,-0.100000)"
     id="g6"
     stroke="none"
     fill="#000000">
    <path
       d="M1363 4285 c-93 -20 -178 -70 -261 -151 -79 -78 -129 -170 -151 -272 -8 -38 -11 -533 -11 -1715 0 -1446 2 -1670 15 -1726 35 -146 143 -286 274 -355 127 -67 113 -66 958 -66 522 0 779 4 815 11 211 44 392 231 428 439 8 46 10 555 8 1740 l-3 1675 -26 67 c-64 165 -178 277 -345 340 l-59 23 -790 2 c-638 1 -802 -1 -852 -12z m1634 -99 c87 -23 145 -57 208 -120 65 -66 105 -138 124 -224 12 -58 16 -2593 4 -2869 l-6 -151 -35 -16 c-19 -9 -37 -14 -41 -11 -3 4 -8 689 -11 1523 l-5 1517 -26 56 c-37 79 -90 133 -167 171 l-67 33 -785 0 -785 0 -55 -26 c-82 -39 -135 -90 -172 -167 l-33 -67 0 -1695 0 -1695 28 -53 c45 -86 124 -151 222 -185 17 -6 191 -13 415 -16 l385 -6 -76 -43 -76 -42 -279 0 c-154 0 -308 5 -344 10 -185 29 -335 175 -370 359 -6 35 -10 622 -10 1701 0 1613 0 1649 20 1712 44 144 167 263 310 302 80 21 1548 23 1627 2z m-486 -550 c-28 -33 -65 -37 -339 -34 -266 3 -272 3 -294 26 l-22 22 333 0 c284 0 332 -2 322 -14z m613 -352 c14 -14 16 -114 16 -950 l0 -934 -950 0 -950 0 0 938 c0 716 3 941 12 950 9 9 230 12 934 12 825 0 924 -2 938 -16z m-890 -1950 c20 -20 20 -48 1 -68 -14 -13 -11 -15 22 -18 38 -3 38 -3 38 -48 l0 -45 -92 -3 c-92 -3 -92 -3 -99 23 -3 14 -3 36 0 50 5 21 12 25 41 25 l35 0 -16 25 c-15 23 -15 27 0 50 19 29 47 32 70 9z m116 -456 c33 -17 51 -35 68 -68 21 -41 23 -56 20 -177 -3 -143 -9 -161 -72 -207 -25 -19 -42 -21 -176 -21 -134 0 -151 2 -176 21 -63 46 -69 64 -72 207 -3 121 -1 136 20 177 36 71 84 90 228 90 100 0 122 -3 160 -22z"
       id="path8" />
    <path
       d="M2740 2950 l0 -50 150 0 150 0 0 50 0 50 -150 0 -150 0 0 -50z"
       id="path10" />
    <path
       d="M1995 2915 c-219 -41 -398 -134 -523 -271 -74 -80 -112 -157 -119 -237 -3 -34 -11 -69 -18 -77 -17 -22 -17 -60 1 -60 12 0 15 -14 13 -72 -2 -82 16 -131 82 -229 94 -139 284 -253 519 -312 126 -31 368 -30 497 2 51 12 95 27 99 32 3 5 12 9 20 9 8 0 61 22 117 49 81 38 118 63 180 122 42 41 77 72 77 69 0 -9 32 41 34 53 5 32 42 107 54 107 15 0 7 265 -10 345 -6 28 -10 51 -9 53 7 11 -60 111 -111 164 -110 114 -255 193 -439 238 -113 28 -351 36 -464 15z m373 -62 c21 -8 -30 -41 -431 -279 -431 -255 -455 -270 -450 -294 20 -89 130 -210 248 -271 71 -37 183 -79 210 -79 8 0 15 -7 15 -16 0 -8 -5 -12 -10 -9 -6 3 -13 0 -16 -8 -7 -20 -49 -13 -146 24 -156 61 -293 174 -347 289 -23 48 -26 68 -26 155 0 94 2 103 33 160 40 73 61 98 136 158 102 84 247 145 411 173 87 15 333 13 373 -3z m4 -565 c-22 -40 -48 -87 -57 -103 -18 -30 -18 -31 25 -110 23 -44 49 -92 57 -107 18 -35 33 -35 139 3 99 36 213 109 270 171 21 24 48 43 59 43 15 0 21 8 23 30 2 17 11 36 20 44 16 13 16 13 0 8 -12 -4 -18 -1 -18 8 0 16 9 18 33 9 29 -11 -10 -99 -82 -183 -95 -111 -271 -201 -480 -246 -63 -13 -317 -15 -337 -2 -8 4 101 361 151 495 3 9 37 12 121 12 l116 0 -40 -72z m66 -510 c-3 -31 -6 -34 -58 -45 -58 -12 -300 -17 -337 -7 -17 5 -23 14 -23 33 l0 26 158 1 c86 0 175 5 197 11 64 17 67 16 63 -19z"
       id="path12" />
    <path
       d="M2060 780 c-18 -18 -20 -33 -20 -130 0 -97 2 -112 20 -130 18 -18 33 -20 130 -20 149 0 150 1 150 150 0 149 -1 150 -150 150 -97 0 -112 -2 -130 -20z"
       id="path14" />
  </g>
  <path
     style="fill:#ffffff"
     d="m 157.15042,243.46928 0,-117.29343 115.07227,0 115.07225,0 2.22117,5.84212 c 1.33335,3.50698 2.22118,50.3902 2.22118,117.29343 l 0,111.45131 -117.29343,0 -117.29344,0 0,-117.29343 z m 167.99324,80.97924 c 22.32031,-9.04258 42.41517,-25.40832 50.23197,-40.91013 4.78441,-9.48815 5.16749,-12.62295 4.11901,-33.70651 -0.63579,-12.78499 -2.38917,-25.59617 -3.89639,-28.46928 -10.14211,-19.33319 -30.34877,-34.77219 -57.39125,-43.85005 -14.45171,-4.85128 -21.40161,-5.78149 -43.02594,-5.75882 -27.97327,0.0293 -43.10673,3.04313 -62.20849,12.38875 -14.05852,6.87819 -30.91884,21.14118 -37.22773,31.49281 -6.23591,10.23186 -12.53497,35.94322 -9.53963,38.93857 1.28311,1.2831 2.34254,6.48374 2.3543,11.55697 0.0269,11.58853 10.22019,29.96381 22.09278,39.82608 10.4311,8.66487 32.39427,19.79441 47.597,24.11914 7.47997,2.12783 20.49789,2.97641 39.61088,2.58204 26.31141,-0.54288 29.89533,-1.16514 47.28349,-8.20957 z m 55.20592,-156.23025 0,-8.06351 -18.78973,0.6615 -18.78972,0.66149 -0.71369,7.40202 -0.71369,7.40201 19.50342,0 19.50341,0 0,-8.06351 z"
     id="path3346"
     inkscape:connector-curvature="0"
     transform="scale(0.8,0.8)" />
  <path
     style="fill:#b3b3b3"
     d="m 193.57055,524.31389 c -14.78419,-0.48178 -17.65416,-0.80681 -23.57235,-2.66964 -8.27557,-2.60484 -15.15903,-6.63993 -21.44862,-12.57321 -7.42045,-7.00008 -12.53152,-15.06562 -15.58758,-24.59805 l -1.55162,-4.83978 -0.44912,-25.90704 c -0.63211,-36.46234 -0.61035,-366.95086 0.0252,-383.196508 0.59435,-15.191605 1.05138,-17.582098 4.89867,-25.622351 4.48288,-9.368551 11.55706,-17.399305 20.49628,-23.267813 5.02374,-3.29804 11.38622,-6.108674 15.66535,-6.920194 6.20117,-1.176028 43.27574,-1.808651 106.70406,-1.820746 40.90792,-0.0078 71.55188,0.234979 80.50633,0.637818 13.74564,0.618383 14.71915,0.737138 19.76861,2.411508 13.44605,4.458629 25.46751,15.18075 32.14962,28.674734 5.44035,10.98636 5.03482,4.632982 5.65138,88.539462 0.89892,122.33156 0.4318,273.02131 -0.9152,295.24026 l -0.38055,6.27706 -3.59412,1.55199 c -1.97677,0.85359 -3.96179,1.55198 -4.41116,1.55198 -0.68361,0 -0.87763,-2.8128 -1.18804,-17.22391 -0.45867,-21.29366 -1.45947,-230.70601 -1.46436,-306.40844 l -0.004,-55.736426 -3.07501,-6.326603 C 396.08641,40.343517 390.72316,34.862974 379.14815,28.946093 l -6.6472,-3.397892 -98.84286,0 -98.84287,0 -5.25543,2.63863 c -11.88853,5.968943 -17.12267,11.082271 -22.8267,22.29984 l -3.7807,7.435128 0,212.211111 0,212.21111 2.98927,5.41504 c 5.6135,10.1688 12.2697,16.54922 22.51445,21.58165 6.71396,3.29803 6.93513,3.31771 46.80825,4.16531 16.75417,0.35614 36.57837,0.82339 44.05378,1.03832 l 13.59166,0.39078 -8.97784,4.98212 -8.97783,4.98213 -24.54232,-0.0924 c -13.49827,-0.0508 -30.07684,-0.27269 -36.84126,-0.49313 z"
     id="path3348"
     inkscape:connector-curvature="0"
     transform="scale(0.8,0.8)" />
  <path
     style="fill:#00cc00"
     d="m 237.1857,301.33141 c -7.20953,-1.49858 -18.26825,-5.82944 -25.90704,-10.14582 -17.51807,-9.89877 -30.65433,-24.55041 -33.32953,-37.17436 -1.13433,-5.35279 -1.10775,-19.90792 0.0445,-24.36101 0.99765,-3.85565 5.45293,-12.03976 9.23175,-16.95823 4.30423,-5.60234 15.72425,-14.58019 24.66528,-19.39062 15.06096,-8.10305 31.16164,-12.45881 49.87056,-13.4916 10.40922,-0.57462 29.52627,-0.0163 33.09808,0.96672 3.58908,0.98772 3.27148,1.1902 -77.91145,49.66844 -25.5022,15.2286 -30.91157,18.90639 -31.17793,21.19769 -0.68385,5.88271 10.31294,20.50409 22.05996,29.33101 5.66411,4.25611 18.48624,10.45985 27.62369,13.36519 4.08431,1.29864 7.81034,2.55331 8.28009,2.78814 1.05471,0.52727 1.13729,2.06981 0.0993,1.85431 -0.41515,-0.0862 -1.52376,0.49031 -2.46357,1.28112 -1.70385,1.43369 -2.02923,1.51683 -4.18363,1.06902 z"
     id="path3350"
     inkscape:connector-curvature="0"
     transform="scale(0.8,0.8)" />
  <path
     style="fill:#6699ff"
     d="m 257.872,306.30806 c -2.0885,-0.1856 -3.97984,-0.52063 -4.20297,-0.74452 -0.53899,-0.54082 1.23266,-7.46881 5.75668,-22.51131 4.07581,-13.55217 11.95859,-37.53542 12.76702,-38.84348 0.39198,-0.63423 2.7653,-0.93 10.36587,-1.29179 5.42163,-0.25807 11.80495,-0.39698 14.18516,-0.30869 l 4.32766,0.16053 -6.55251,11.67241 c -4.75969,8.47873 -6.56172,12.21767 -6.58616,13.66525 -0.0249,1.47469 1.50037,4.87978 5.86613,13.09587 3.24487,6.10666 6.4197,11.67952 7.05518,12.38414 1.60633,1.78109 4.31529,1.66009 11.03675,-0.49298 15.0058,-4.80679 27.56304,-12.23137 38.96901,-23.04079 3.568,-3.38139 5.65217,-4.91337 7.2811,-5.35199 2.03981,-0.54926 2.34732,-0.86968 2.89549,-3.01712 0.93361,-3.65734 1.69595,-5.35514 2.88962,-6.43539 1.52556,-1.38062 1.3565,-1.78813 -0.62142,-1.49783 -1.30725,0.19186 -1.70816,0.0309 -1.70816,-0.68587 0,-1.26755 1.195,-1.63714 3.03343,-0.93816 3.03844,1.15521 1.51795,6.47773 -4.3824,15.34074 -11.39971,17.12371 -31.49331,29.42107 -59.71542,36.54605 -9.61537,2.42751 -29.27006,3.48485 -42.66006,2.29493 z"
     id="path3352"
     inkscape:connector-curvature="0"
     transform="scale(0.8,0.8)" />
</svg>
